<?xml version="1.0" encoding="utf-8"?>
<!-- Generator: Adobe Illustrator 16.0.4, SVG Export Plug-In . SVG Version: 6.00 Build 0)  -->
<!DOCTYPE svg PUBLIC "-//W3C//DTD SVG 1.1//EN" "http://www.w3.org/Graphics/SVG/1.1/DTD/svg11.dtd">
<svg version="1.1" id="Layer_1" xmlns="http://www.w3.org/2000/svg" xmlns:xlink="http://www.w3.org/1999/xlink" x="0px" y="0px"
	 width="123.333px" height="132.667px" viewBox="0 0 123.333 132.667" enable-background="new 0 0 123.333 132.667"
	 xml:space="preserve">
<path fill="#333333" d="M67.264,11.406c-0.354-0.831-0.894-1.495-1.613-1.987c-0.722-0.49-1.599-0.736-2.631-0.736
	c-1.512,0-2.834,0.622-3.961,1.863c0-0.385-0.018-0.663-0.049-0.836c-0.033-0.17-0.158-0.332-0.373-0.48
	c-0.217-0.15-0.552-0.227-1.006-0.227h-0.615c-0.562,0-0.947,0.098-1.153,0.289c-0.205,0.193-0.309,0.578-0.309,1.158v17.635
	c0,0.558,0.098,0.938,0.293,1.142c0.193,0.203,0.583,0.306,1.167,0.306h0.713c0.562,0,0.94-0.098,1.136-0.291
	c0.194-0.192,0.292-0.568,0.292-1.127V23.02c0.895,0.979,1.916,1.469,3.066,1.469c0.943,0,1.837-0.216,2.675-0.645
	c0.839-0.43,1.516-1.03,2.03-1.803c0.881-1.396,1.321-3.24,1.321-5.536c0-0.919-0.075-1.791-0.226-2.614
	C67.871,13.068,67.619,12.24,67.264,11.406z M64.584,17.914c-0.043,0.428-0.153,1.041-0.336,1.843
	c-0.181,0.801-0.521,1.44-1.021,1.922c-0.501,0.481-1.136,0.721-1.9,0.721c-0.896,0-1.619-0.416-2.172-1.25v-9.033
	c0.681-0.791,1.5-1.187,2.459-1.187c0.702,0,1.282,0.229,1.74,0.688c0.459,0.459,0.768,1.067,0.927,1.826
	c0.159,0.758,0.261,1.352,0.304,1.778s0.064,0.876,0.064,1.346C64.65,17.039,64.627,17.486,64.584,17.914z"/>
<path fill="none" d="M93.099,16.718c-0.508,0.169-0.938,0.384-1.293,0.646s-0.663,0.631-0.921,1.104
	c-0.259,0.473-0.39,1.014-0.39,1.623c0,0.694,0.205,1.287,0.615,1.78c0.409,0.494,0.926,0.742,1.551,0.742
	c0.217,0,0.453-0.037,0.713-0.11c0.258-0.073,0.564-0.205,0.92-0.396c0.355-0.188,0.652-0.515,0.891-0.977
	c0.236-0.463,0.355-1.03,0.355-1.703v-3.184c-0.389,0.021-0.766,0.062-1.133,0.127C94.042,16.435,93.605,16.551,93.099,16.718z"/>
<path fill="none" d="M111.618,14.402c-0.053-0.533-0.145-0.965-0.271-1.295c-0.128-0.33-0.298-0.676-0.511-1.037
	c-0.213-0.363-0.496-0.635-0.848-0.814s-0.771-0.271-1.262-0.271c-0.575,0-1.129,0.159-1.66,0.479
	c-0.384,0.276-0.617,0.489-0.703,0.64c-0.085,0.148-0.128,0.383-0.128,0.702v8.531c0.532,0.853,1.257,1.277,2.173,1.277
	c0.639,0,1.182-0.148,1.629-0.447c0.446-0.299,0.776-0.633,0.989-1.006c0.214-0.373,0.378-0.879,0.495-1.519
	c0.117-0.639,0.182-1.134,0.191-1.485c0.01-0.351,0.017-0.824,0.017-1.422c0-0.469-0.006-0.841-0.017-1.117
	C111.704,15.34,111.67,14.935,111.618,14.402z"/>
<path fill="#89A4CC" d="M83.184,2.082H82.55c-0.577,0-0.971,0.098-1.182,0.291c-0.211,0.191-0.316,0.578-0.316,1.156v19.404
	c0,0.557,0.1,0.938,0.299,1.141s0.6,0.306,1.199,0.306h0.634c0.578,0,0.966-0.097,1.166-0.289s0.3-0.567,0.3-1.124V3.496
	c0-0.534-0.094-0.903-0.283-1.107C84.178,2.185,83.785,2.082,83.184,2.082z"/>
<path fill="#89A4CC" d="M93.503,8.734c-1.562,0-3.029,0.366-4.399,1.098c-0.343,0.188-0.558,0.324-0.644,0.406
	c-0.086,0.084-0.127,0.219-0.127,0.407c0,0.255,0.031,0.636,0.095,1.146c0.042,0.383,0.085,0.633,0.128,0.748
	c0.042,0.117,0.138,0.176,0.285,0.176c0.107,0,0.275-0.105,0.51-0.315c1.095-1.051,2.436-1.575,4.023-1.575
	c0.258,0,0.474,0.021,0.646,0.062s0.397,0.146,0.679,0.314c0.28,0.168,0.49,0.483,0.631,0.945c0.141,0.463,0.211,1.051,0.211,1.766
	v0.631c0,0.273-0.018,0.437-0.049,0.489c-0.033,0.053-0.136,0.09-0.308,0.109c-0.407,0.021-0.771,0.048-1.093,0.079
	c-0.321,0.032-0.846,0.101-1.573,0.205s-1.36,0.272-1.896,0.504s-1.092,0.521-1.67,0.867s-1.022,0.81-1.332,1.387
	c-0.312,0.578-0.467,1.235-0.467,1.972c0,1.194,0.395,2.252,1.182,3.17s1.787,1.377,3,1.377c1.035,0,1.924-0.271,2.668-0.812
	c0.742-0.54,1.287-1.123,1.633-1.75v0.812c0,0.541,0.092,0.914,0.275,1.119c0.184,0.207,0.566,0.31,1.149,0.31h0.649
	c0.562,0,0.938-0.097,1.134-0.289c0.194-0.192,0.292-0.567,0.292-1.124v-9.221c0-1.562-0.465-2.789-1.393-3.678
	C96.817,9.179,95.403,8.734,93.503,8.734z M95.541,19.429c0,0.673-0.119,1.241-0.355,1.703s-0.534,0.788-0.891,0.978
	c-0.354,0.188-0.662,0.32-0.92,0.395c-0.26,0.072-0.496,0.109-0.713,0.109c-0.625,0-1.142-0.246-1.551-0.74
	c-0.41-0.494-0.615-1.088-0.615-1.781c0-0.609,0.131-1.15,0.39-1.623c0.258-0.473,0.565-0.841,0.921-1.104
	c0.355-0.264,0.785-0.479,1.293-0.646c0.507-0.167,0.943-0.282,1.311-0.346c0.366-0.063,0.743-0.105,1.131-0.127V19.429
	L95.541,19.429z"/>
<path fill="#89A4CC" d="M114.344,11.721c-0.354-0.856-0.913-1.542-1.678-2.056c-0.763-0.516-1.691-0.771-2.789-0.771
	c-1.512,0-2.758,0.6-3.736,1.795V3.5c0-0.536-0.092-0.907-0.275-1.111c-0.185-0.204-0.568-0.307-1.15-0.307h-0.616
	c-0.562,0-0.946,0.097-1.151,0.289s-0.308,0.578-0.308,1.156v19.405c0,0.558,0.097,0.937,0.292,1.14
	c0.193,0.205,0.583,0.307,1.167,0.307h0.713c0.281,0,0.497-0.012,0.647-0.032c0.15-0.022,0.318-0.125,0.502-0.312
	c0.185-0.186,0.275-0.453,0.275-0.801c0.768,0.978,1.778,1.465,3.035,1.465c2.062,0,3.65-0.834,4.768-2.506
	c0.859-1.285,1.289-3.095,1.289-5.429c0-0.878-0.074-1.724-0.226-2.539C114.952,13.414,114.7,12.58,114.344,11.721z M111.713,18.156
	c-0.01,0.352-0.073,0.847-0.19,1.484c-0.116,0.641-0.282,1.146-0.495,1.518c-0.213,0.373-0.543,0.709-0.99,1.008
	c-0.447,0.298-0.99,0.447-1.627,0.447c-0.916,0-1.642-0.427-2.174-1.279v-8.53c0-0.318,0.043-0.555,0.129-0.702
	c0.084-0.149,0.318-0.362,0.702-0.64c0.531-0.319,1.085-0.479,1.66-0.479c0.49,0,0.91,0.09,1.263,0.271
	c0.352,0.18,0.633,0.452,0.846,0.813c0.214,0.362,0.384,0.709,0.512,1.038c0.127,0.33,0.219,0.763,0.271,1.294
	c0.053,0.534,0.084,0.939,0.096,1.215c0.011,0.276,0.017,0.648,0.017,1.117C111.73,17.33,111.725,17.805,111.713,18.156z"/>
<path d="M66.698,65.243c0-11.255-6.412-20.512-16.526-23.568c-3.694-1.557-7.868-2.407-12.392-2.407
	c-4.651,0-8.172,0.881-10.688,1.635c-0.044,0.015-0.082,0.028-0.125,0.043V18.345c0-5.532,0.251-11.189,0.505-15.591
	C27.217,2.25,26.715,2,26.213,2c-4.778,2.514-10.812,4.148-13.706,5.28c-0.627,0.376-0.627,2.137,0,2.515l1.257,0.754
	c3.772,2.263,3.898,3.017,3.898,10.435v16.734h0.034v57.206h-0.034v17.019c0,7.417-0.125,8.173-3.898,10.435l-1.257,0.756
	c-0.627,0.379-0.627,2.14,0,2.517c2.894,1.132,8.928,2.767,13.707,5.28c0.502,0,1.004-0.251,1.258-0.756
	c-0.254-4.399-0.505-10.059-0.505-15.59V91.981c0.043,0.016,0.082,0.027,0.125,0.043c2.515,0.753,6.037,1.637,10.688,1.637
	c4.525,0,8.701-0.852,12.395-2.408c10.113-3.059,16.522-12.312,16.522-23.567c0-0.411-0.013-0.816-0.027-1.222
	C66.685,66.06,66.698,65.653,66.698,65.243z M37.026,86.92c-2.788,0-5.16-0.48-6.92-1.188c-2.135-2.642-3.14-6.537-3.14-10.933
	V58.128c0-4.397,1.005-8.292,3.141-10.933c1.761-0.708,4.132-1.189,6.919-1.189c11.616,0,18.193,8.762,19.019,20.457
	C55.219,78.158,48.643,86.92,37.026,86.92z"/>
<path fill="none" d="M64.546,14.319c-0.053-0.532-0.145-0.964-0.271-1.294c-0.127-0.331-0.297-0.676-0.511-1.039
	c-0.213-0.362-0.495-0.634-0.848-0.814c-0.352-0.182-0.771-0.271-1.262-0.271c-0.575,0-1.129,0.16-1.66,0.479
	c-0.385,0.276-0.618,0.49-0.703,0.639c-0.085,0.149-0.127,0.384-0.127,0.703v8.53c0.533,0.854,1.256,1.278,2.172,1.278
	c0.639,0,1.182-0.149,1.628-0.447c0.448-0.298,0.777-0.634,0.991-1.007c0.213-0.371,0.378-0.878,0.495-1.517
	s0.181-1.134,0.191-1.486c0.01-0.352,0.016-0.824,0.016-1.421c0-0.469-0.006-0.841-0.016-1.119
	C64.631,15.257,64.599,14.853,64.546,14.319z"/>
<path fill="#333333" d="M51.26,11.639c-0.354-0.856-0.914-1.542-1.678-2.056c-0.763-0.514-1.691-0.771-2.789-0.771
	c-1.513,0-2.758,0.598-3.737,1.794V3.419c0-0.537-0.092-0.908-0.276-1.112c-0.185-0.203-0.567-0.306-1.151-0.306h-0.615
	c-0.562,0-0.946,0.096-1.152,0.289c-0.205,0.193-0.309,0.578-0.309,1.157v19.403c0,0.557,0.098,0.938,0.293,1.141
	c0.193,0.204,0.582,0.305,1.166,0.305h0.713c0.281,0,0.498-0.011,0.648-0.033c0.151-0.021,0.318-0.125,0.502-0.311
	c0.184-0.185,0.275-0.452,0.275-0.802c0.766,0.978,1.777,1.466,3.035,1.466c2.062,0,3.651-0.835,4.768-2.506
	c0.859-1.285,1.289-3.094,1.289-5.429c0-0.877-0.075-1.724-0.227-2.539C51.866,13.333,51.615,12.497,51.26,11.639z M48.629,18.073
	c-0.011,0.353-0.074,0.848-0.191,1.486c-0.116,0.639-0.281,1.146-0.494,1.517c-0.213,0.373-0.543,0.708-0.99,1.007
	c-0.447,0.298-0.991,0.447-1.628,0.447c-0.916,0-1.64-0.425-2.172-1.278v-8.53c0-0.319,0.042-0.554,0.127-0.703
	c0.085-0.148,0.319-0.362,0.703-0.639c0.53-0.319,1.085-0.479,1.659-0.479c0.49,0,0.911,0.091,1.263,0.271s0.634,0.453,0.847,0.814
	c0.213,0.362,0.383,0.708,0.512,1.039c0.127,0.33,0.219,0.762,0.271,1.294c0.054,0.533,0.085,0.938,0.097,1.213
	c0.01,0.277,0.017,0.65,0.017,1.119C48.646,17.249,48.641,17.722,48.629,18.073z"/>
</svg>
