<?xml version="1.0" encoding="utf-8"?>
<!-- Generator: Adobe Illustrator 16.0.4, SVG Export Plug-In . SVG Version: 6.00 Build 0)  -->
<!DOCTYPE svg PUBLIC "-//W3C//DTD SVG 1.1//EN" "http://www.w3.org/Graphics/SVG/1.1/DTD/svg11.dtd">
<svg version="1.1" id="Layer_1" xmlns="http://www.w3.org/2000/svg" xmlns:xlink="http://www.w3.org/1999/xlink" x="0px" y="0px"
	 width="123.333px" height="132.667px" viewBox="0 0 123.333 132.667" enable-background="new 0 0 123.333 132.667"
	 xml:space="preserve">
<g>
	<path fill="none" d="M76.938,48.377c-0.053-0.533-0.145-0.964-0.271-1.294c-0.128-0.331-0.298-0.676-0.511-1.039
		s-0.495-0.634-0.847-0.815c-0.352-0.181-0.771-0.271-1.262-0.271c-0.575,0-1.129,0.16-1.66,0.479
		c-0.384,0.277-0.618,0.49-0.703,0.639c-0.085,0.149-0.127,0.384-0.127,0.703v8.53c0.533,0.853,1.256,1.278,2.172,1.278
		c0.638,0,1.181-0.149,1.628-0.447c0.447-0.298,0.777-0.634,0.99-1.007c0.213-0.372,0.378-0.878,0.495-1.517
		c0.117-0.639,0.181-1.134,0.191-1.486s0.017-0.825,0.017-1.421c0-0.469-0.006-0.841-0.017-1.119
		C77.023,49.314,76.991,48.91,76.938,48.377z"/>
	<path fill="none" d="M88.454,50.693c-0.507,0.168-0.938,0.383-1.293,0.646s-0.663,0.631-0.921,1.104
		c-0.259,0.473-0.389,1.014-0.389,1.624c0,0.694,0.205,1.287,0.615,1.781c0.409,0.494,0.926,0.741,1.551,0.741
		c0.216,0,0.453-0.037,0.712-0.11c0.258-0.073,0.565-0.205,0.921-0.394c0.355-0.188,0.652-0.514,0.89-0.977
		c0.236-0.462,0.355-1.03,0.355-1.703V50.22c-0.388,0.021-0.765,0.063-1.132,0.126C89.397,50.41,88.961,50.525,88.454,50.693z"/>
	<path fill="none" d="M118.266,48.235c-0.021-0.285-0.092-0.671-0.21-1.157s-0.274-0.871-0.469-1.156
		c-0.193-0.285-0.484-0.544-0.871-0.776c-0.388-0.232-0.851-0.349-1.389-0.349c-1.033,0-1.824,0.438-2.373,1.314
		c-0.55,0.876-0.856,1.959-0.92,3.247h6.296C118.309,48.896,118.287,48.521,118.266,48.235z"/>
	<path fill="#333333" d="M79.664,45.697c-0.354-0.856-0.913-1.542-1.677-2.056c-0.763-0.514-1.692-0.771-2.789-0.771
		c-1.513,0-2.758,0.598-3.737,1.794v-7.187c0-0.537-0.092-0.908-0.276-1.112c-0.184-0.204-0.567-0.306-1.151-0.306h-0.616
		c-0.562,0-0.946,0.096-1.152,0.289c-0.205,0.193-0.308,0.578-0.308,1.157v19.403c0,0.557,0.097,0.938,0.292,1.141
		c0.194,0.204,0.583,0.305,1.167,0.305h0.713c0.281,0,0.497-0.011,0.648-0.033c0.151-0.021,0.318-0.125,0.502-0.311
		c0.184-0.185,0.275-0.452,0.275-0.802c0.766,0.978,1.778,1.466,3.035,1.466c2.062,0,3.65-0.835,4.768-2.506
		c0.859-1.285,1.289-3.094,1.289-5.429c0-0.877-0.075-1.724-0.226-2.538C80.271,47.39,80.02,46.554,79.664,45.697z M77.034,52.131
		c-0.011,0.352-0.074,0.847-0.191,1.486c-0.117,0.639-0.282,1.145-0.495,1.517c-0.213,0.373-0.543,0.708-0.99,1.007
		c-0.447,0.298-0.99,0.447-1.628,0.447c-0.916,0-1.64-0.425-2.172-1.278v-8.53c0-0.319,0.042-0.554,0.127-0.703
		c0.085-0.149,0.319-0.362,0.703-0.639c0.531-0.319,1.085-0.479,1.66-0.479c0.49,0,0.91,0.091,1.262,0.271
		c0.352,0.181,0.634,0.453,0.847,0.815s0.383,0.708,0.511,1.039c0.127,0.33,0.219,0.761,0.271,1.294
		c0.053,0.532,0.085,0.937,0.096,1.213c0.011,0.277,0.017,0.65,0.017,1.119C77.051,51.306,77.045,51.779,77.034,52.131z"/>
	<path fill="#333333" d="M88.858,42.71c-1.562,0-3.029,0.366-4.399,1.097c-0.343,0.188-0.557,0.325-0.643,0.407
		s-0.128,0.218-0.128,0.407c0,0.255,0.031,0.637,0.095,1.146c0.042,0.382,0.085,0.632,0.128,0.749
		c0.042,0.116,0.138,0.175,0.286,0.175c0.106,0,0.275-0.105,0.509-0.315c1.095-1.051,2.436-1.576,4.023-1.576
		c0.259,0,0.474,0.021,0.646,0.063c0.172,0.042,0.398,0.147,0.679,0.315c0.28,0.168,0.49,0.483,0.631,0.946
		c0.14,0.462,0.21,1.051,0.21,1.765v0.631c0,0.273-0.017,0.437-0.049,0.489c-0.032,0.053-0.135,0.089-0.307,0.11
		c-0.407,0.021-0.771,0.047-1.093,0.079c-0.321,0.032-0.846,0.1-1.573,0.205c-0.728,0.105-1.36,0.273-1.896,0.504
		c-0.534,0.231-1.091,0.521-1.67,0.867c-0.578,0.347-1.022,0.809-1.332,1.387c-0.311,0.578-0.466,1.234-0.466,1.97
		c0,1.196,0.394,2.253,1.182,3.17c0.787,0.918,1.787,1.377,3,1.377c1.034,0,1.923-0.271,2.667-0.81
		c0.743-0.54,1.288-1.124,1.633-1.751v0.812c0,0.542,0.092,0.914,0.275,1.12c0.184,0.206,0.567,0.308,1.15,0.308h0.649
		c0.562,0,0.939-0.096,1.134-0.289c0.195-0.193,0.292-0.567,0.292-1.125v-9.22c0-1.563-0.464-2.789-1.392-3.678
		C92.173,43.154,90.759,42.71,88.858,42.71z M90.896,53.404c0,0.672-0.119,1.24-0.355,1.703c-0.237,0.462-0.534,0.788-0.89,0.977
		c-0.355,0.189-0.663,0.321-0.921,0.394c-0.259,0.074-0.496,0.11-0.712,0.11c-0.625,0-1.142-0.247-1.551-0.741
		c-0.41-0.494-0.615-1.087-0.615-1.781c0-0.609,0.13-1.15,0.389-1.624c0.258-0.473,0.565-0.841,0.921-1.104s0.786-0.478,1.293-0.646
		s0.943-0.283,1.31-0.347c0.367-0.063,0.744-0.105,1.132-0.126V53.404z"/>
	<path fill="#333333" d="M104.435,49.601c-0.483-0.246-0.872-0.406-1.166-0.48c-0.295-0.074-0.705-0.178-1.23-0.31
		c-0.505-0.127-0.862-0.217-1.072-0.27s-0.396-0.158-0.554-0.314c-0.158-0.156-0.27-0.365-0.332-0.626
		c-0.062-0.261-0.093-0.579-0.093-0.955c0-1.231,0.674-1.847,2.023-1.847c1.37,0,2.581,0.456,3.63,1.366
		c0.129,0.106,0.246,0.159,0.354,0.159c0.129,0,0.22-0.048,0.273-0.145c0.053-0.096,0.112-0.338,0.177-0.726
		c0.149-0.452,0.225-0.849,0.225-1.193c0-0.134-0.032-0.236-0.097-0.303s-0.257-0.179-0.578-0.337
		c-1.113-0.605-2.377-0.909-3.791-0.909c-3.319,0-4.979,1.533-4.979,4.598c0,2.55,1.508,4.136,4.523,4.757
		c0.462,0.102,0.798,0.174,1.008,0.217c0.21,0.043,0.47,0.15,0.781,0.32c0.31,0.17,0.535,0.398,0.674,0.685
		c0.14,0.287,0.209,0.643,0.209,1.068c0,1.381-0.75,2.072-2.248,2.072c-1.5,0-2.807-0.551-3.92-1.653
		c-0.214-0.211-0.385-0.317-0.514-0.317c-0.236,0-0.354,0.127-0.354,0.382c-0.021,0.085-0.086,0.404-0.192,0.956
		c-0.107,0.553-0.161,0.861-0.161,0.925c0,0.413,0.696,0.88,2.089,1.401c1.006,0.37,2.045,0.554,3.115,0.554
		c3.298,0,4.947-1.607,4.947-4.822c0-1.284-0.471-2.386-1.412-3.306C105.363,50.162,104.918,49.847,104.435,49.601z"/>
	<path fill="#333333" d="M120.771,54.959c-0.043-0.298-0.08-0.479-0.112-0.543c-0.032-0.063-0.123-0.096-0.273-0.096
		c-0.107,0-0.246,0.096-0.417,0.288c-1.117,1.32-2.503,1.98-4.157,1.98c-0.603,0-1.135-0.111-1.598-0.335s-0.824-0.538-1.082-0.942
		c-0.259-0.404-0.474-0.798-0.646-1.182c-0.173-0.383-0.291-0.831-0.355-1.341c-0.065-0.511-0.103-0.884-0.113-1.119
		c-0.011-0.234-0.016-0.489-0.016-0.767h7.673c0.537,0,0.907-0.093,1.112-0.278c0.203-0.186,0.306-0.563,0.306-1.132
		c0-2.196-0.499-3.875-1.498-5.038c-0.999-1.162-2.432-1.743-4.3-1.743c-0.77,0-1.512,0.124-2.228,0.369
		c-0.716,0.246-1.416,0.647-2.1,1.204c-0.684,0.557-1.229,1.386-1.634,2.488c-0.406,1.103-0.609,2.403-0.609,3.901
		c0,1.2,0.145,2.277,0.433,3.23c0.289,0.954,0.658,1.72,1.106,2.298c0.449,0.579,0.988,1.061,1.619,1.447
		c0.63,0.385,1.256,0.653,1.876,0.803c0.619,0.15,1.261,0.225,1.924,0.225c1.073,0,2.136-0.239,3.188-0.716
		c1.353-0.65,2.029-1.225,2.029-1.724c0-0.192-0.032-0.575-0.097-1.15C120.804,55.065,120.793,55.023,120.771,54.959z
		 M112.954,46.112c0.549-0.876,1.34-1.314,2.373-1.314c0.538,0,1.001,0.117,1.389,0.349c0.387,0.232,0.678,0.491,0.871,0.776
		c0.194,0.285,0.351,0.67,0.469,1.156s0.188,0.872,0.21,1.157s0.043,0.66,0.064,1.124h-6.296
		C112.098,48.072,112.404,46.989,112.954,46.112z"/>
</g>
<g>
	<path fill="none" d="M76.683,79.534c-0.159-0.758-0.468-1.366-0.926-1.826c-0.458-0.459-1.038-0.688-1.74-0.688
		c-0.959,0-1.778,0.396-2.459,1.186v9.033c0.553,0.834,1.278,1.25,2.172,1.25c0.766,0,1.399-0.24,1.899-0.721
		s0.841-1.121,1.021-1.922c0.182-0.802,0.293-1.415,0.336-1.843c0.043-0.427,0.064-0.875,0.064-1.345s-0.021-0.919-0.064-1.346
		S76.843,80.293,76.683,79.534z"/>
	<path fill="none" d="M88.454,82.593c-0.507,0.169-0.938,0.384-1.293,0.646s-0.663,0.631-0.921,1.104
		c-0.259,0.473-0.389,1.014-0.389,1.623c0,0.694,0.205,1.287,0.615,1.781c0.409,0.494,0.926,0.741,1.551,0.741
		c0.216,0,0.453-0.037,0.712-0.11c0.258-0.073,0.565-0.205,0.921-0.395c0.355-0.188,0.652-0.515,0.89-0.977
		c0.236-0.462,0.355-1.03,0.355-1.703V82.12c-0.388,0.021-0.765,0.063-1.132,0.127C89.397,82.311,88.961,82.426,88.454,82.593z"/>
	<path fill="#999999" d="M79.664,77.496c-0.354-0.833-0.893-1.496-1.613-1.988c-0.721-0.491-1.598-0.737-2.629-0.737
		c-1.512,0-2.833,0.622-3.961,1.863c0-0.385-0.017-0.663-0.049-0.835c-0.033-0.171-0.157-0.332-0.373-0.481
		c-0.216-0.15-0.551-0.226-1.005-0.226h-0.616c-0.562,0-0.946,0.097-1.152,0.289c-0.205,0.193-0.308,0.578-0.308,1.157v17.636
		c0,0.557,0.097,0.937,0.292,1.141c0.194,0.203,0.583,0.306,1.167,0.306h0.713c0.562,0,0.94-0.098,1.135-0.291
		c0.194-0.193,0.292-0.569,0.292-1.128v-5.093c0.894,0.979,1.916,1.468,3.066,1.468c0.944,0,1.836-0.215,2.674-0.644
		s1.515-1.03,2.03-1.803c0.881-1.395,1.321-3.24,1.321-5.536c0-0.919-0.075-1.79-0.226-2.613
		C80.271,79.158,80.019,78.33,79.664,77.496z M76.986,84.003c-0.043,0.428-0.154,1.041-0.336,1.843
		c-0.181,0.801-0.521,1.441-1.021,1.922s-1.134,0.721-1.899,0.721c-0.895,0-1.619-0.416-2.172-1.25v-9.033
		c0.681-0.79,1.5-1.186,2.459-1.186c0.702,0,1.282,0.229,1.74,0.688c0.458,0.46,0.767,1.068,0.926,1.826
		c0.16,0.759,0.261,1.352,0.304,1.778s0.064,0.876,0.064,1.346S77.029,83.576,76.986,84.003z"/>
	<path fill="#999999" d="M88.858,74.61c-1.562,0-3.029,0.366-4.399,1.097c-0.343,0.188-0.557,0.324-0.643,0.407
		s-0.128,0.218-0.128,0.407c0,0.255,0.031,0.636,0.095,1.146c0.042,0.382,0.085,0.632,0.128,0.748
		c0.042,0.116,0.138,0.175,0.286,0.175c0.106,0,0.275-0.105,0.509-0.315c1.095-1.051,2.436-1.576,4.023-1.576
		c0.259,0,0.474,0.021,0.646,0.063c0.172,0.042,0.398,0.146,0.679,0.315c0.28,0.168,0.49,0.483,0.631,0.945
		c0.14,0.462,0.21,1.051,0.21,1.765v0.631c0,0.273-0.017,0.437-0.049,0.488c-0.032,0.053-0.135,0.09-0.307,0.11
		c-0.407,0.021-0.771,0.048-1.093,0.079c-0.321,0.032-0.846,0.1-1.573,0.205s-1.36,0.273-1.896,0.504
		c-0.534,0.231-1.091,0.521-1.67,0.867c-0.578,0.347-1.022,0.81-1.332,1.387c-0.311,0.578-0.466,1.235-0.466,1.971
		c0,1.195,0.394,2.252,1.182,3.17c0.787,0.918,1.787,1.377,3,1.377c1.034,0,1.923-0.271,2.667-0.811
		c0.743-0.54,1.288-1.123,1.633-1.75v0.812c0,0.541,0.092,0.914,0.275,1.119c0.184,0.206,0.567,0.309,1.15,0.309h0.649
		c0.562,0,0.939-0.097,1.134-0.289c0.195-0.192,0.292-0.567,0.292-1.124v-9.22c0-1.563-0.464-2.79-1.392-3.679
		C92.173,75.055,90.759,74.61,88.858,74.61z M90.896,85.304c0,0.673-0.119,1.241-0.355,1.703c-0.237,0.462-0.534,0.788-0.89,0.977
		c-0.355,0.189-0.663,0.321-0.921,0.395c-0.259,0.073-0.496,0.11-0.712,0.11c-0.625,0-1.142-0.247-1.551-0.741
		c-0.41-0.494-0.615-1.087-0.615-1.781c0-0.609,0.13-1.15,0.389-1.623c0.258-0.473,0.565-0.841,0.921-1.104s0.786-0.478,1.293-0.646
		c0.507-0.167,0.943-0.282,1.31-0.346c0.367-0.063,0.744-0.105,1.132-0.127V85.304z"/>
	<path fill="#999999" d="M99.999,75.092h-0.633c-0.578,0-0.973,0.097-1.184,0.289c-0.21,0.193-0.315,0.578-0.315,1.157V88.81
		c0,0.557,0.1,0.937,0.299,1.14c0.2,0.204,0.601,0.306,1.2,0.306h0.633c0.577,0,0.966-0.097,1.166-0.289
		c0.199-0.192,0.3-0.567,0.3-1.124V76.506c0-0.535-0.095-0.905-0.283-1.108S100.599,75.092,99.999,75.092z"/>
	<path fill="#999999" d="M100.232,67.928h-1.069c-0.54,0-0.912,0.091-1.117,0.273c-0.205,0.182-0.308,0.542-0.308,1.076v1.221
		c0,0.493,0.092,0.841,0.275,1.044s0.566,0.305,1.149,0.305h1.069c0.561,0,0.944-0.097,1.149-0.289
		c0.205-0.193,0.308-0.6,0.308-1.221v-0.899c0-0.599-0.098-1.001-0.291-1.205C101.204,68.03,100.815,67.928,100.232,67.928z"/>
	<path fill="#999999" d="M113.142,74.915c-0.054-0.096-0.198-0.145-0.434-0.145c-0.813,0-1.611,0.301-2.394,0.899
		c-0.781,0.601-1.388,1.521-1.819,2.763h-0.027v-2.12c0-0.535-0.095-0.904-0.283-1.108c-0.189-0.203-0.585-0.305-1.185-0.305h-0.468
		c-0.579,0-0.974,0.097-1.186,0.289c-0.211,0.192-0.316,0.578-0.316,1.156V88.81c0,0.557,0.1,0.937,0.3,1.14
		c0.2,0.204,0.6,0.306,1.199,0.306h0.634c0.577,0,0.966-0.097,1.165-0.289c0.2-0.192,0.3-0.567,0.3-1.124v-6.489
		c0-1.435,0.381-2.597,1.141-3.485s1.719-1.387,2.875-1.494c0.278-0.021,0.444-0.069,0.498-0.145s0.081-0.306,0.081-0.69v-0.932
		C113.223,75.242,113.195,75.012,113.142,74.915z"/>
</g>
<g>
	<path fill="none" d="M79.975,119.85c-0.507,0.169-0.938,0.384-1.293,0.646s-0.663,0.631-0.921,1.104
		c-0.259,0.473-0.389,1.014-0.389,1.623c0,0.694,0.205,1.287,0.615,1.781c0.409,0.494,0.926,0.741,1.551,0.741
		c0.216,0,0.453-0.037,0.712-0.11c0.258-0.073,0.565-0.205,0.921-0.395c0.355-0.188,0.652-0.515,0.89-0.977
		c0.236-0.462,0.355-1.03,0.355-1.703v-3.184c-0.388,0.021-0.765,0.063-1.132,0.127C80.918,119.567,80.481,119.683,79.975,119.85z"
		/>
	<path fill="none" d="M98.495,117.534c-0.053-0.532-0.145-0.964-0.271-1.294c-0.128-0.33-0.298-0.676-0.511-1.038
		s-0.495-0.634-0.847-0.814s-0.771-0.271-1.262-0.271c-0.575,0-1.129,0.159-1.66,0.479c-0.384,0.277-0.618,0.49-0.703,0.64
		c-0.085,0.148-0.128,0.383-0.128,0.702v8.53c0.532,0.853,1.257,1.278,2.173,1.278c0.638,0,1.181-0.149,1.628-0.447
		c0.447-0.299,0.777-0.634,0.99-1.007c0.213-0.372,0.378-0.878,0.495-1.518c0.117-0.639,0.181-1.134,0.191-1.485
		s0.017-0.825,0.017-1.422c0-0.469-0.006-0.841-0.017-1.118C98.58,118.472,98.548,118.067,98.495,117.534z"/>
	<path fill="#89A4CC" d="M70.06,105.217h-0.633c-0.578,0-0.972,0.097-1.183,0.29c-0.211,0.192-0.316,0.578-0.316,1.156v19.403
		c0,0.557,0.1,0.937,0.299,1.14c0.2,0.204,0.6,0.306,1.2,0.306h0.633c0.578,0,0.966-0.097,1.166-0.289
		c0.2-0.192,0.3-0.567,0.3-1.124v-19.468c0-0.535-0.094-0.904-0.283-1.108C71.054,105.319,70.66,105.217,70.06,105.217z"/>
	<path fill="#89A4CC" d="M80.379,111.867c-1.562,0-3.029,0.366-4.399,1.097c-0.343,0.188-0.557,0.324-0.643,0.407
		s-0.128,0.218-0.128,0.407c0,0.255,0.031,0.636,0.095,1.146c0.042,0.382,0.085,0.632,0.128,0.748
		c0.042,0.116,0.138,0.175,0.286,0.175c0.106,0,0.275-0.105,0.509-0.315c1.095-1.051,2.436-1.576,4.023-1.576
		c0.259,0,0.474,0.021,0.646,0.063c0.172,0.042,0.398,0.146,0.679,0.315c0.28,0.168,0.49,0.483,0.631,0.945
		c0.14,0.462,0.21,1.051,0.21,1.765v0.631c0,0.273-0.017,0.437-0.049,0.488c-0.032,0.053-0.135,0.09-0.307,0.11
		c-0.407,0.021-0.771,0.048-1.093,0.079c-0.321,0.032-0.846,0.1-1.573,0.205s-1.36,0.273-1.896,0.504
		c-0.534,0.231-1.091,0.521-1.67,0.867c-0.578,0.347-1.022,0.81-1.332,1.387c-0.311,0.578-0.466,1.235-0.466,1.971
		c0,1.195,0.394,2.252,1.182,3.17c0.787,0.918,1.787,1.377,3,1.377c1.034,0,1.923-0.271,2.667-0.811
		c0.743-0.54,1.288-1.123,1.633-1.75v0.812c0,0.541,0.092,0.914,0.275,1.119c0.184,0.206,0.567,0.309,1.15,0.309h0.649
		c0.562,0,0.939-0.097,1.134-0.289c0.195-0.192,0.292-0.567,0.292-1.124v-9.22c0-1.563-0.464-2.79-1.392-3.679
		C83.693,112.312,82.279,111.867,80.379,111.867z M82.416,122.561c0,0.673-0.119,1.241-0.355,1.703
		c-0.237,0.462-0.534,0.788-0.89,0.977c-0.355,0.189-0.663,0.321-0.921,0.395c-0.259,0.073-0.496,0.11-0.712,0.11
		c-0.625,0-1.142-0.247-1.551-0.741c-0.41-0.494-0.615-1.087-0.615-1.781c0-0.609,0.13-1.15,0.389-1.623
		c0.258-0.473,0.565-0.841,0.921-1.104s0.786-0.478,1.293-0.646c0.507-0.167,0.943-0.282,1.31-0.346
		c0.367-0.063,0.744-0.105,1.132-0.127V122.561z"/>
	<path fill="#89A4CC" d="M101.221,114.854c-0.354-0.856-0.913-1.542-1.677-2.056c-0.763-0.515-1.692-0.771-2.789-0.771
		c-1.513,0-2.758,0.599-3.737,1.795v-7.188c0-0.536-0.092-0.907-0.275-1.111c-0.185-0.204-0.568-0.307-1.151-0.307h-0.616
		c-0.562,0-0.946,0.097-1.151,0.29c-0.205,0.192-0.308,0.578-0.308,1.156v19.403c0,0.557,0.097,0.937,0.292,1.14
		c0.194,0.204,0.583,0.306,1.167,0.306h0.713c0.281,0,0.497-0.011,0.648-0.032c0.15-0.022,0.318-0.125,0.502-0.312
		c0.184-0.185,0.275-0.452,0.275-0.801c0.767,0.978,1.778,1.466,3.035,1.466c2.062,0,3.65-0.835,4.768-2.506
		c0.859-1.285,1.289-3.095,1.289-5.429c0-0.878-0.075-1.724-0.226-2.538C101.828,116.547,101.576,115.712,101.221,114.854z
		 M98.591,121.288c-0.011,0.352-0.074,0.847-0.191,1.485c-0.117,0.64-0.282,1.146-0.495,1.518c-0.213,0.373-0.543,0.708-0.99,1.007
		c-0.447,0.298-0.99,0.447-1.628,0.447c-0.916,0-1.641-0.426-2.173-1.278v-8.53c0-0.319,0.043-0.554,0.128-0.702
		c0.085-0.149,0.319-0.362,0.703-0.64c0.531-0.319,1.085-0.479,1.66-0.479c0.49,0,0.91,0.091,1.262,0.271s0.634,0.452,0.847,0.814
		s0.383,0.708,0.511,1.038c0.127,0.33,0.219,0.762,0.271,1.294c0.053,0.533,0.085,0.938,0.096,1.214
		c0.011,0.277,0.017,0.649,0.017,1.118C98.607,120.463,98.602,120.937,98.591,121.288z"/>
	<path fill="#89A4CC" d="M112.807,119.704c-0.407-0.385-0.853-0.7-1.336-0.946s-0.872-0.406-1.166-0.48
		c-0.295-0.074-0.705-0.178-1.23-0.311c-0.505-0.127-0.862-0.217-1.072-0.27c-0.21-0.054-0.396-0.158-0.554-0.314
		s-0.27-0.365-0.332-0.626c-0.062-0.261-0.093-0.579-0.093-0.955c0-1.23,0.674-1.847,2.023-1.847c1.37,0,2.581,0.456,3.63,1.366
		c0.129,0.106,0.246,0.159,0.354,0.159c0.129,0,0.22-0.049,0.273-0.146c0.053-0.097,0.112-0.338,0.177-0.726
		c0.149-0.451,0.225-0.849,0.225-1.193c0-0.135-0.032-0.236-0.097-0.303c-0.064-0.067-0.257-0.18-0.578-0.337
		c-1.113-0.606-2.377-0.909-3.791-0.909c-3.319,0-4.979,1.533-4.979,4.599c0,2.55,1.508,4.136,4.523,4.757
		c0.462,0.102,0.798,0.174,1.008,0.217s0.47,0.15,0.781,0.32c0.31,0.17,0.535,0.398,0.674,0.685c0.14,0.287,0.209,0.644,0.209,1.067
		c0,1.382-0.75,2.072-2.248,2.072c-1.5,0-2.807-0.551-3.92-1.652c-0.214-0.212-0.385-0.317-0.514-0.317
		c-0.236,0-0.354,0.127-0.354,0.383c-0.021,0.085-0.086,0.403-0.192,0.956c-0.107,0.553-0.161,0.86-0.161,0.924
		c0,0.413,0.696,0.881,2.089,1.402c1.006,0.369,2.045,0.554,3.115,0.554c3.298,0,4.947-1.607,4.947-4.822
		C114.219,121.727,113.748,120.625,112.807,119.704z"/>
</g>
<path d="M58.694,64.242c0-11.255-6.413-20.512-16.528-23.568c-3.694-1.557-7.868-2.407-12.392-2.407
	c-4.651,0-8.172,0.881-10.688,1.635c-0.044,0.015-0.082,0.028-0.125,0.043V17.344c0-5.532,0.251-11.189,0.505-15.591
	C19.212,1.25,18.71,1,18.208,1C13.43,3.514,7.396,5.148,4.502,6.28c-0.627,0.376-0.627,2.137,0,2.515l1.257,0.754
	c3.772,2.263,3.898,3.017,3.898,10.435v16.734h0.034v57.206H9.657v17.018c0,7.417-0.125,8.173-3.898,10.435l-1.257,0.755
	c-0.627,0.379-0.627,2.14,0,2.517c2.894,1.132,8.928,2.766,13.707,5.28c0.502,0,1.004-0.251,1.258-0.755
	c-0.254-4.4-0.505-10.059-0.505-15.591V90.98c0.043,0.015,0.082,0.028,0.125,0.043c2.515,0.753,6.037,1.636,10.688,1.636
	c4.525,0,8.701-0.851,12.395-2.408c10.113-3.058,16.524-12.312,16.524-23.567c0-0.411-0.013-0.816-0.028-1.221
	C58.681,65.059,58.694,64.653,58.694,64.242z M29.021,85.92c-2.788,0-5.16-0.481-6.92-1.189c-2.135-2.641-3.14-6.537-3.14-10.933
	V57.128c0-4.397,1.005-8.292,3.141-10.933c1.761-0.708,4.132-1.189,6.919-1.189c11.616,0,18.193,8.762,19.019,20.457
	C47.214,77.157,40.637,85.92,29.021,85.92z"/>
</svg>
