<?xml version="1.0" encoding="utf-8"?>
<!-- Generator: Adobe Illustrator 16.0.4, SVG Export Plug-In . SVG Version: 6.00 Build 0)  -->
<!DOCTYPE svg PUBLIC "-//W3C//DTD SVG 1.1//EN" "http://www.w3.org/Graphics/SVG/1.1/DTD/svg11.dtd">
<svg version="1.1" id="Layer_1" xmlns="http://www.w3.org/2000/svg" xmlns:xlink="http://www.w3.org/1999/xlink" x="0px" y="0px"
	 width="468.167px" height="132.667px" viewBox="0 0 468.167 132.667" enable-background="new 0 0 468.167 132.667"
	 xml:space="preserve">
<path fill="#333333" d="M67.264,13.407c-0.354-0.831-0.895-1.495-1.613-1.987c-0.722-0.49-1.6-0.736-2.631-0.736
	c-1.512,0-2.834,0.622-3.961,1.863c0-0.385-0.018-0.663-0.049-0.836c-0.033-0.17-0.158-0.332-0.373-0.48
	c-0.217-0.15-0.552-0.227-1.006-0.227h-0.615c-0.562,0-0.947,0.098-1.153,0.289c-0.205,0.193-0.309,0.578-0.309,1.158v17.635
	c0,0.558,0.098,0.938,0.293,1.142c0.193,0.203,0.583,0.306,1.167,0.306h0.713c0.562,0,0.94-0.098,1.136-0.291
	c0.194-0.192,0.292-0.568,0.292-1.127v-5.095C60.05,26,61.071,26.49,62.221,26.49c0.943,0,1.837-0.216,2.675-0.645
	c0.839-0.43,1.517-1.03,2.03-1.803c0.881-1.396,1.32-3.24,1.32-5.536c0-0.919-0.074-1.791-0.226-2.614
	C67.872,15.069,67.62,14.241,67.264,13.407z M64.584,19.915c-0.043,0.428-0.153,1.041-0.336,1.843
	c-0.182,0.801-0.521,1.44-1.021,1.922c-0.501,0.481-1.136,0.721-1.9,0.721c-0.896,0-1.619-0.416-2.172-1.25v-9.033
	c0.681-0.791,1.5-1.187,2.459-1.187c0.702,0,1.282,0.229,1.74,0.688c0.459,0.459,0.768,1.067,0.927,1.826
	c0.159,0.758,0.261,1.352,0.304,1.778c0.043,0.426,0.064,0.876,0.064,1.346C64.65,19.04,64.627,19.487,64.584,19.915z"/>
<path fill="none" d="M51.464,119.221c-0.509,0.169-0.938,0.384-1.293,0.646c-0.354,0.263-0.663,0.632-0.921,1.104
	c-0.26,0.473-0.391,1.014-0.391,1.623c0,0.693,0.205,1.287,0.615,1.779c0.409,0.494,0.926,0.742,1.551,0.742
	c0.217,0,0.453-0.037,0.713-0.109c0.258-0.073,0.564-0.205,0.92-0.396c0.355-0.188,0.652-0.516,0.892-0.977
	c0.235-0.463,0.354-1.03,0.354-1.703v-3.184c-0.389,0.021-0.766,0.062-1.133,0.127C52.406,118.938,51.97,119.053,51.464,119.221z"/>
<path fill="none" d="M69.983,116.905c-0.053-0.533-0.145-0.965-0.271-1.295c-0.128-0.33-0.298-0.676-0.511-1.037
	c-0.213-0.363-0.496-0.635-0.849-0.814c-0.352-0.178-0.771-0.271-1.262-0.271c-0.575,0-1.129,0.159-1.66,0.479
	c-0.384,0.275-0.616,0.488-0.703,0.64c-0.085,0.147-0.128,0.383-0.128,0.702v8.531c0.532,0.853,1.258,1.276,2.174,1.276
	c0.639,0,1.182-0.147,1.629-0.446c0.445-0.299,0.775-0.633,0.988-1.006c0.214-0.373,0.378-0.879,0.495-1.52
	c0.117-0.639,0.183-1.135,0.19-1.484c0.011-0.352,0.018-0.824,0.018-1.423c0-0.469-0.006-0.841-0.018-1.116
	C70.069,117.842,70.036,117.438,69.983,116.905z"/>
<path fill="#89A4CC" d="M41.549,104.584h-0.635c-0.576,0-0.971,0.099-1.182,0.291c-0.211,0.191-0.316,0.578-0.316,1.156v19.404
	c0,0.557,0.101,0.938,0.3,1.141c0.198,0.203,0.601,0.307,1.198,0.307h0.635c0.578,0,0.966-0.098,1.166-0.289
	c0.199-0.192,0.3-0.567,0.3-1.125v-19.471c0-0.533-0.094-0.902-0.282-1.106C42.543,104.688,42.15,104.584,41.549,104.584z"/>
<path fill="#89A4CC" d="M51.867,111.237c-1.562,0-3.028,0.366-4.398,1.098c-0.343,0.188-0.559,0.324-0.645,0.406
	c-0.086,0.084-0.127,0.219-0.127,0.407c0,0.255,0.031,0.636,0.096,1.146c0.042,0.383,0.085,0.633,0.128,0.748
	c0.042,0.117,0.138,0.176,0.284,0.176c0.107,0,0.275-0.104,0.511-0.314c1.095-1.051,2.437-1.574,4.022-1.574
	c0.258,0,0.475,0.021,0.646,0.062s0.396,0.146,0.68,0.313c0.279,0.168,0.489,0.483,0.631,0.945c0.141,0.463,0.211,1.051,0.211,1.766
	v0.631c0,0.273-0.019,0.438-0.049,0.49c-0.033,0.053-0.137,0.09-0.309,0.108c-0.407,0.021-0.771,0.048-1.094,0.079
	c-0.32,0.031-0.846,0.101-1.572,0.205c-0.727,0.104-1.359,0.271-1.896,0.504c-0.535,0.232-1.092,0.521-1.67,0.867
	s-1.021,0.81-1.332,1.387c-0.312,0.578-0.467,1.234-0.467,1.972c0,1.194,0.395,2.253,1.182,3.171s1.787,1.377,3,1.377
	c1.035,0,1.924-0.271,2.668-0.812c0.742-0.54,1.287-1.123,1.634-1.75v0.812c0,0.541,0.092,0.914,0.274,1.118
	c0.185,0.207,0.566,0.31,1.149,0.31h0.649c0.562,0,0.938-0.096,1.133-0.289c0.195-0.191,0.293-0.566,0.293-1.123v-9.221
	c0-1.562-0.465-2.789-1.393-3.679C55.182,111.682,53.768,111.237,51.867,111.237z M53.906,121.932c0,0.673-0.119,1.24-0.355,1.703
	c-0.236,0.462-0.534,0.787-0.891,0.978c-0.354,0.188-0.662,0.32-0.92,0.396c-0.26,0.072-0.496,0.108-0.713,0.108
	c-0.625,0-1.143-0.245-1.552-0.739s-0.614-1.088-0.614-1.781c0-0.609,0.131-1.15,0.39-1.623c0.258-0.473,0.565-0.842,0.921-1.104
	c0.355-0.265,0.785-0.479,1.293-0.646c0.507-0.167,0.943-0.282,1.311-0.346c0.366-0.063,0.743-0.105,1.131-0.127V121.932
	L53.906,121.932z"/>
<path fill="#89A4CC" d="M72.709,114.224c-0.354-0.856-0.913-1.542-1.678-2.056c-0.764-0.517-1.691-0.771-2.789-0.771
	c-1.512,0-2.758,0.6-3.736,1.795v-7.189c0-0.535-0.092-0.906-0.275-1.11c-0.185-0.204-0.568-0.308-1.15-0.308h-0.615
	c-0.563,0-0.947,0.098-1.151,0.289c-0.205,0.192-0.309,0.578-0.309,1.156v19.405c0,0.558,0.097,0.937,0.292,1.14
	c0.192,0.205,0.583,0.307,1.167,0.307h0.713c0.281,0,0.497-0.012,0.646-0.031c0.15-0.021,0.318-0.125,0.502-0.312
	c0.186-0.186,0.275-0.453,0.275-0.801c0.768,0.979,1.778,1.465,3.035,1.465c2.062,0,3.65-0.834,4.768-2.506
	c0.859-1.285,1.289-3.095,1.289-5.429c0-0.878-0.074-1.724-0.226-2.539C73.317,115.917,73.065,115.083,72.709,114.224z
	 M70.079,120.659c-0.01,0.352-0.073,0.848-0.19,1.484c-0.116,0.641-0.282,1.146-0.495,1.518c-0.213,0.373-0.543,0.709-0.99,1.008
	s-0.99,0.447-1.627,0.447c-0.916,0-1.642-0.427-2.174-1.279v-8.529c0-0.318,0.043-0.555,0.129-0.702
	c0.084-0.149,0.318-0.362,0.702-0.64c0.531-0.319,1.085-0.479,1.66-0.479c0.489,0,0.91,0.09,1.263,0.271
	c0.352,0.181,0.633,0.453,0.846,0.813c0.215,0.362,0.385,0.709,0.513,1.038c0.127,0.33,0.219,0.764,0.271,1.294
	c0.053,0.534,0.084,0.938,0.096,1.215s0.018,0.648,0.018,1.117C70.095,119.833,70.09,120.308,70.079,120.659z"/>
<path d="M66.698,65.243c0-11.255-6.412-20.512-16.526-23.568c-3.694-1.557-7.868-2.407-12.392-2.407
	c-4.651,0-8.172,0.881-10.688,1.635c-0.044,0.015-0.082,0.028-0.125,0.043V18.345c0-5.532,0.251-11.189,0.505-15.591
	C27.217,2.25,26.715,2,26.213,2c-4.778,2.514-10.812,4.148-13.706,5.28c-0.627,0.376-0.627,2.137,0,2.515l1.257,0.754
	c3.772,2.263,3.898,3.017,3.898,10.435v16.734h0.034v57.205h-0.034v17.02c0,7.417-0.125,8.174-3.898,10.436l-1.257,0.756
	c-0.627,0.379-0.627,2.14,0,2.517c2.894,1.132,8.928,2.767,13.707,5.28c0.502,0,1.004-0.251,1.258-0.756
	c-0.254-4.399-0.505-10.059-0.505-15.59V91.981c0.043,0.017,0.082,0.026,0.125,0.043c2.515,0.753,6.037,1.638,10.688,1.638
	c4.525,0,8.701-0.853,12.395-2.408c10.113-3.06,16.522-12.312,16.522-23.567c0-0.411-0.013-0.815-0.026-1.222
	C66.685,66.06,66.698,65.653,66.698,65.243z M37.026,86.919c-2.788,0-5.16-0.479-6.92-1.188c-2.135-2.643-3.14-6.537-3.14-10.934
	v-16.67c0-4.397,1.005-8.292,3.141-10.933c1.761-0.708,4.132-1.189,6.919-1.189c11.616,0,18.193,8.762,19.019,20.457
	C55.219,78.158,48.643,86.919,37.026,86.919z"/>
<path fill="none" d="M64.545,16.32c-0.053-0.532-0.145-0.964-0.271-1.294c-0.127-0.331-0.297-0.676-0.511-1.039
	c-0.213-0.362-0.495-0.634-0.848-0.814c-0.353-0.182-0.771-0.271-1.263-0.271c-0.575,0-1.129,0.16-1.66,0.479
	c-0.385,0.276-0.618,0.49-0.703,0.639s-0.127,0.384-0.127,0.703v8.53c0.533,0.854,1.256,1.278,2.172,1.278
	c0.639,0,1.182-0.149,1.627-0.447c0.449-0.298,0.777-0.634,0.992-1.007c0.213-0.371,0.377-0.878,0.494-1.517
	c0.117-0.639,0.182-1.134,0.191-1.486c0.01-0.352,0.016-0.824,0.016-1.421c0-0.469-0.006-0.841-0.016-1.119
	C64.631,17.258,64.599,16.854,64.545,16.32z"/>
<path fill="#333333" d="M51.26,13.64c-0.354-0.856-0.914-1.542-1.678-2.056c-0.763-0.514-1.691-0.771-2.789-0.771
	c-1.513,0-2.758,0.598-3.737,1.794V5.42c0-0.537-0.092-0.908-0.276-1.112c-0.185-0.203-0.567-0.306-1.151-0.306h-0.615
	c-0.562,0-0.946,0.096-1.152,0.289c-0.205,0.193-0.309,0.578-0.309,1.157v19.403c0,0.557,0.098,0.938,0.293,1.141
	c0.193,0.204,0.582,0.305,1.166,0.305h0.713c0.281,0,0.498-0.011,0.648-0.033c0.151-0.021,0.318-0.125,0.502-0.311
	c0.184-0.185,0.275-0.452,0.275-0.802c0.766,0.978,1.777,1.466,3.035,1.466c2.062,0,3.651-0.835,4.768-2.506
	c0.859-1.285,1.289-3.094,1.289-5.429c0-0.877-0.075-1.724-0.227-2.539C51.866,15.334,51.615,14.498,51.26,13.64z M48.629,20.074
	c-0.011,0.353-0.074,0.848-0.191,1.486c-0.116,0.639-0.281,1.146-0.494,1.517c-0.213,0.373-0.543,0.708-0.99,1.007
	c-0.447,0.298-0.991,0.447-1.628,0.447c-0.916,0-1.64-0.425-2.172-1.278v-8.53c0-0.319,0.042-0.554,0.127-0.703
	c0.085-0.148,0.319-0.362,0.703-0.639c0.53-0.319,1.085-0.479,1.659-0.479c0.49,0,0.911,0.091,1.263,0.271
	c0.352,0.18,0.634,0.453,0.847,0.814c0.213,0.362,0.383,0.708,0.512,1.039c0.127,0.33,0.219,0.762,0.271,1.294
	c0.054,0.533,0.085,0.938,0.097,1.213c0.01,0.277,0.017,0.65,0.017,1.119C48.646,19.25,48.641,19.723,48.629,20.074z"/>
<text transform="matrix(1 0 0 1 108.4839 85.6606)" fill="#666666" font-family="'Futura-Medium'" font-size="52">Bioautomation</text>
<line fill="none" stroke="#000000" stroke-width="2" stroke-miterlimit="10" x1="90.497" y1="35.465" x2="90.497" y2="97.465"/>
</svg>
